# xmcd
#
# Track frame offsets: 
#        150
#        14157
#        28214
#        41609
#        55941
#        67057
#        84768
#        99434
#        117025
#        133490
#        154344
#        168551
#        185183
#        200622
#        213948
#        232083
#
# Disc length: 3286 seconds
#
# Revision: 0
# Processed by: cddbd v1.5.2PL0 Copyright (c) Steve Scherf et al.
# Submitted via: ExactAudioCopy v0.95b4
#
DISCID=f00cd410
DTITLE=Various Artist - Het Beste Van
DYEAR=1994
DGENRE=Ambiance
TTITLE0=Kouvanjou
TTITLE1=Geert Mien Belgisch Peerd
TTITLE2=Van Je Ras Ras Ras
TTITLE3=Heb Jij Mien Zwien Ook Zien
TTITLE4=Betsie
TTITLE5=Ik Proat Plat
TTITLE6=Geen Sloot Is Te Diep
TTITLE7=Boer Harms
TTITLE8=Mesjeu Het Joe Ain Simmer Fraai
TTITLE9=Eppo (Annie)
TTITLE10=De Lederbroek
TTITLE11=America En Olde Pekela
TTITLE12=Ik Hoal Heur Met Mien Brommer Op
TTITLE13=De Boerenboogie
TTITLE14=Lucy Loes - Lucy's Feestmedley
TTITLE15=The Double Dj's - Plattelands Medley
EXTD=
EXTT0=
EXTT1=
EXTT2=
EXTT3=
EXTT4=
EXTT5=
EXTT6=
EXTT7=
EXTT8=
EXTT9=
EXTT10=
EXTT11=
EXTT12=
EXTT13=
EXTT14=
EXTT15=
PLAYORDER=
